<svg id="Group_754" data-name="Group 754" xmlns="http://www.w3.org/2000/svg" xmlns:xlink="http://www.w3.org/1999/xlink" width="61.058" height="70.742" viewBox="0 0 61.058 70.742">
  <defs>
    <clipPath id="clip-path">
      <rect id="Rectangle_274" data-name="Rectangle 274" width="61.058" height="70.742" fill="none"/>
    </clipPath>
  </defs>
  <g id="Group_753" data-name="Group 753" clip-path="url(#clip-path)">
    <path id="Path_298" data-name="Path 298" d="M277.209,0a3.213,3.213,0,0,1,1.271,1.5c.374.815.832,1.593,1.175,2.42a1.307,1.307,0,0,0,1.192.86c1.026.123,2.047.286,3.07.429a1.921,1.921,0,0,1,1.153,3.308c-.81.816-1.627,1.627-2.467,2.412a.914.914,0,0,0-.312.968c.217,1.057.371,2.128.561,3.191a1.946,1.946,0,0,1-2.922,2.17c-.975-.518-1.96-1.017-2.928-1.547a.913.913,0,0,0-.968,0c-.97.527-1.954,1.028-2.929,1.545a1.939,1.939,0,0,1-2.264-.111,2,2,0,0,1-.651-2.119c.2-1.062.349-2.132.562-3.191a.842.842,0,0,0-.289-.854c-.792-.769-1.569-1.554-2.366-2.319a1.954,1.954,0,0,1-.625-2.179,1.924,1.924,0,0,1,1.787-1.292c.981-.114,1.954-.294,2.934-.41a1.308,1.308,0,0,0,1.186-.867c.355-.847.82-1.647,1.2-2.482A3.028,3.028,0,0,1,275.829,0Zm-6.991,7.305c.729.815,1.435,1.63,2.172,2.416a2.149,2.149,0,0,1,.632,2.007c-.206,1.053-.358,2.117-.561,3.341.868-.455,1.628-.782,2.311-1.229a2.862,2.862,0,0,1,3.465-.014c.551.369,1.179.621,1.762.944.424.235.543.083.474-.339-.145-.884-.267-1.774-.454-2.649a2.172,2.172,0,0,1,.684-2.119c.739-.747,1.443-1.531,2.172-2.31a1.577,1.577,0,0,0-.57-.134c-.864-.125-1.724-.275-2.59-.383a2.039,2.039,0,0,1-1.692-1.242c-.385-.81-.788-1.611-1.193-2.412-.078-.154-.1-.41-.322-.4-.2.011-.235.259-.315.416-.4.8-.8,1.606-1.195,2.411a2.029,2.029,0,0,1-1.636,1.218c-1.087.146-2.17.327-3.143.476" transform="translate(-230.368)" fill="#f48caa"/>
    <path id="Path_299" data-name="Path 299" d="M417.249,56.41a3.871,3.871,0,0,1-3.283.453A1.075,1.075,0,0,1,413.878,55a3.4,3.4,0,0,1,3.371.447Z" transform="translate(-356.191 -47.159)" fill="#f48caa"/>
    <path id="Path_300" data-name="Path 300" d="M28.943,190.757H4.237a2.019,2.019,0,0,0-2.025,2.929c.132.38.435.429.777.427.874,0,1.748,0,2.622,0q5.8,0,11.594,0a1.345,1.345,0,0,1,1.137.367,1.083,1.083,0,0,1-.616,1.776,3.918,3.918,0,0,1-.688.026q-7.108,0-14.216,0A2.524,2.524,0,0,1,0,193.475c0-.483-.007-.967,0-1.45a3.465,3.465,0,0,1,3.425-3.436c.621-.012,1.242,0,1.863-.005.919,0,.921,0,.921-.9q0-9.872,0-19.743a2.754,2.754,0,0,1,.1-1.022,1.6,1.6,0,0,1,1.625-1.056c2.6-.018,5.2-.031,7.8,0,1.146.015,1.723.718,1.724,1.967q.008,8.18,0,16.36c0,1.22.025,2.44-.01,3.658-.017.585.2.752.763.74,1.449-.03,2.9-.036,4.347,0,.61.016.789-.186.786-.789-.021-4.349-.011-8.7-.011-13.047q0-8.767,0-17.534c0-1.654.528-2.177,2.193-2.177q3.588,0,7.177,0c1.314,0,1.883.577,1.883,1.9q0,15.325,0,30.65c0,.978,0,.979.98.98h3.934c.969,0,.971,0,.971-1q0-14.5,0-28.993,0-5.281,0-10.562c0-1.769.549-2.322,2.3-2.324q3.416,0,6.832,0c1.589,0,2.175.572,2.182,2.163.015,3.152.006,6.3,0,9.457a3.186,3.186,0,0,1-.087.751,1.086,1.086,0,0,1-2.141-.17,5.753,5.753,0,0,1-.016-.689c0-2.83-.016-5.661.012-8.491.006-.609-.183-.8-.788-.784q-2.656.052-5.313,0c-.585-.01-.739.2-.739.76q.018,19.571,0,39.141c0,.566.168.764.745.754,1.748-.031,3.5-.039,5.244,0,.672.016.853-.2.851-.861q-.03-12.08-.013-24.161c0-.23,0-.46,0-.69.014-.837.4-1.323,1.062-1.345s1.088.426,1.166,1.264c.028.3.02.6.02.9q0,11.942,0,23.885c0,.995,0,.995.983,1,.483,0,.966,0,1.449,0a3.509,3.509,0,0,1,3.752,3.343,7.549,7.549,0,0,1-.047,2.2,2.455,2.455,0,0,1-2.547,2.149q-16.424.008-32.848,0c-.846,0-1.325-.394-1.337-1.062-.013-.692.48-1.1,1.366-1.1q15.907,0,31.814,0c.23,0,.46-.006.69,0,.448.009.7-.185.688-.655,0-.046,0-.092,0-.138.072-2.257-.222-2.562-2.469-2.562H28.943m3.413-17.789q0-7.385,0-14.771c0-.862-.03-.889-.9-.891-1.7,0-3.4.016-5.106-.01-.577-.009-.752.205-.751.767q.018,14.909,0,29.817c0,.543.183.721.721.713,1.7-.026,3.4-.008,5.106-.01.923,0,.928,0,.928-.915q0-7.351,0-14.7m-17.147,5.456c0-3.173-.011-6.346.01-9.518,0-.575-.132-.825-.766-.812-1.746.037-3.494.031-5.24,0-.572-.009-.762.19-.761.757q.02,9.484,0,18.968c0,.622.233.784.815.773,1.7-.029,3.4-.039,5.1,0,.672.017.862-.205.855-.863-.029-3.1-.013-6.207-.013-9.311" transform="translate(-0.001 -125.541)" fill="#392946"/>
    <path id="Path_301" data-name="Path 301" d="M406.488,90.608a1.1,1.1,0,0,1-1.441,1.087,7.334,7.334,0,0,1-1.846-1.061,1.084,1.084,0,0,1,1.1-1.838,18.14,18.14,0,0,1,1.733.988.98.98,0,0,1,.457.824" transform="translate(-347.06 -76.414)" fill="#f48caa"/>
    <path id="Path_302" data-name="Path 302" d="M227.52,57.041a8.506,8.506,0,0,1-.962-.007,1.016,1.016,0,0,1-.987-.971.994.994,0,0,1,.833-1.163,5.339,5.339,0,0,1,2.118-.022,1.089,1.089,0,0,1,.944,1.163,1.075,1.075,0,0,1-1.054,1c-.3.026-.6,0-.893,0" transform="translate(-194.36 -47.204)" fill="#f48caa"/>
    <path id="Path_303" data-name="Path 303" d="M237.591,90.972c.059-.87,2.273-2.153,3.053-1.769a1.068,1.068,0,0,1,.213,1.824,9.284,9.284,0,0,1-1.78,1.033,1.082,1.082,0,0,1-1.485-1.088" transform="translate(-204.72 -76.803)" fill="#f48caa"/>
    <path id="Path_304" data-name="Path 304" d="M239.818,17.387a5.431,5.431,0,0,1-2.231-1.375.936.936,0,0,1,.038-1.215,1.008,1.008,0,0,1,1.289-.349,11.556,11.556,0,0,1,1.781,1.028A1,1,0,0,1,241,16.719c-.167.455-.531.672-1.183.669" transform="translate(-204.54 -12.36)" fill="#f48caa"/>
    <path id="Path_305" data-name="Path 305" d="M406.557,15.536a1.264,1.264,0,0,1-.836,1.11c-.737.341-1.361,1.15-2.315.674a1.071,1.071,0,0,1-.108-1.8,10.06,10.06,0,0,1,1.722-1,1.1,1.1,0,0,1,1.537,1.011" transform="translate(-347.129 -12.432)" fill="#f48caa"/>
  </g>
</svg>
