<svg id="Group_751" data-name="Group 751" xmlns="http://www.w3.org/2000/svg" xmlns:xlink="http://www.w3.org/1999/xlink" width="63.537" height="70.742" viewBox="0 0 63.537 70.742">
  <defs>
    <clipPath id="clip-path">
      <rect id="Rectangle_273" data-name="Rectangle 273" width="63.537" height="70.742" fill="none"/>
    </clipPath>
  </defs>
  <g id="Group_750" data-name="Group 750" clip-path="url(#clip-path)">
    <path id="Path_290" data-name="Path 290" d="M63.537,132.2a5.725,5.725,0,0,1-3.16,3.957c-.429.2-.258.434-.13.719a5.515,5.515,0,0,1-.837,6.24,4.708,4.708,0,0,1-1.695,1.277c-.321.144-.479.287-.275.671a5.582,5.582,0,0,1-2.576,7.656c-.49.216-.237.49-.112.775a5.459,5.459,0,0,1-.821,6.121,5.07,5.07,0,0,1-3.987,1.89c-5.888.013-11.776.029-17.664-.016a41.629,41.629,0,0,1-10.72-1.743c-.643-.177-1.295-.32-1.933-.509a.624.624,0,0,0-.815.28A4.3,4.3,0,0,1,14.9,161.53c-4.37-.038-8.74-.011-13.11-.014-1.326,0-1.791-.461-1.791-1.779Q0,143.52,0,127.3c0-1.312.468-1.772,1.8-1.772,4.416,0,8.832.017,13.248-.01a4.166,4.166,0,0,1,3.729,1.949.687.687,0,0,0,.852.366A42.269,42.269,0,0,0,31.848,122.7a17.787,17.787,0,0,0,4.79-4.42,10.976,10.976,0,0,0,2-7.028,5.586,5.586,0,0,1,11.136-.859,34.586,34.586,0,0,1-1.735,14.471c-.186.535-.09.677.476.673,2.921-.02,5.846.088,8.762-.035a5.805,5.805,0,0,1,6.258,4.491ZM19.42,143.535c0,3.98.006,7.96-.008,11.94a.754.754,0,0,0,.631.876,53.728,53.728,0,0,0,16.795,2.324c4.069-.082,8.142-.016,12.213-.016.23,0,.461.009.69-.009a2.707,2.707,0,1,0-.221-5.409c-1.311-.025-2.622.011-3.933-.016a1.425,1.425,0,1,1,.133-2.844c2.185-.009,4.37.017,6.555-.011a2.711,2.711,0,1,0,.03-5.412c-1.311-.021-2.622.009-3.933-.014a1.424,1.424,0,1,1,.084-2.845c2.185-.011,4.37.014,6.555-.011a2.708,2.708,0,0,0,2.758-3.613,2.754,2.754,0,0,0-2.752-1.8c-1.288-.016-2.576.01-3.864-.012a1.428,1.428,0,1,1,.111-2.847c2.185-.008,4.37.021,6.555-.012a2.689,2.689,0,0,0,2.637-3.781,2.8,2.8,0,0,0-2.864-1.636q-8.694,0-17.389,0a1.43,1.43,0,1,1,0-2.85c1.173-.012,2.348-.048,3.518.013a1.153,1.153,0,0,0,1.319-.876A33.255,33.255,0,0,0,46.912,110.9a3.182,3.182,0,0,0-.131-.676,2.656,2.656,0,0,0-5.143.018,7.05,7.05,0,0,0-.131,2.058,12.152,12.152,0,0,1-1.435,5.9,18.426,18.426,0,0,1-6.259,6.677,42.912,42.912,0,0,1-13.635,5.817c-.569.148-.778.363-.773.97.027,3.957.014,7.914.014,11.871m-16.562-.009q0,7.1,0,14.208c0,.922,0,.924.893.924q5.413,0,10.826,0c1.527,0,1.984-.453,1.985-1.967q0-13.174,0-26.348c0-1.509-.458-1.957-1.993-1.958-3.609,0-7.218.016-10.826-.016-.684-.006-.906.163-.9.878.031,4.759.016,9.518.016,14.277" transform="translate(0 -90.788)" fill="#392946"/>
    <path id="Path_291" data-name="Path 291" d="M311.241,0a1.763,1.763,0,0,1,.887,1.726c-.032,1.926-.006,3.854-.013,5.78,0,1.043-.536,1.647-1.427,1.647s-1.422-.6-1.426-1.647c-.006-1.927.019-3.854-.013-5.78A1.761,1.761,0,0,1,310.137,0Z" transform="translate(-266.475)" fill="#f48caa"/>
    <path id="Path_292" data-name="Path 292" d="M231.23,45.823a1.548,1.548,0,0,1-.838,1.287,1.234,1.234,0,0,1-1.482-.148c-1.421-1.369-2.824-2.76-4.184-4.189a1.421,1.421,0,0,1,1.99-2c1.43,1.36,2.808,2.774,4.195,4.178a1.4,1.4,0,0,1,.32.871" transform="translate(-193.358 -34.853)" fill="#f48caa"/>
    <path id="Path_293" data-name="Path 293" d="M366.953,47.306a1.528,1.528,0,0,1-1.265-.818,1.259,1.259,0,0,1,.167-1.539c1.356-1.4,2.732-2.787,4.143-4.132a1.422,1.422,0,0,1,1.985,2.017c-1.347,1.411-2.743,2.774-4.132,4.145a1.408,1.408,0,0,1-.9.329" transform="translate(-314.947 -34.878)" fill="#f48caa"/>
    <path id="Path_294" data-name="Path 294" d="M193.8,128.227c-.9,0-1.792.014-2.688,0a1.424,1.424,0,1,1-.006-2.845q2.722-.023,5.444,0a1.421,1.421,0,1,1,.006,2.842c-.918.021-1.838,0-2.757,0" transform="translate(-163.4 -108.026)" fill="#f48caa"/>
    <path id="Path_295" data-name="Path 295" d="M393.312,128.232c-.85,0-1.7.009-2.55,0a1.4,1.4,0,0,1-1.564-1.443,1.386,1.386,0,0,1,1.529-1.407q2.653-.018,5.307,0a1.387,1.387,0,0,1,1.53,1.406A1.4,1.4,0,0,1,396,128.23c-.9.011-1.792,0-2.688,0" transform="translate(-335.364 -108.03)" fill="#f48caa"/>
    <path id="Path_296" data-name="Path 296" d="M79.821,357.878c0-1.747-.005-3.494,0-5.241,0-1.041.546-1.642,1.445-1.633a1.4,1.4,0,0,1,1.407,1.6q.009,5.345,0,10.69a1.4,1.4,0,0,1-1.41,1.6c-.9.008-1.437-.6-1.441-1.637-.007-1.793,0-3.586,0-5.379" transform="translate(-68.779 -302.454)" fill="#f48caa"/>
    <path id="Path_297" data-name="Path 297" d="M82.714,312.5a1.423,1.423,0,1,1-1.441-1.422,1.388,1.388,0,0,1,1.441,1.422" transform="translate(-68.822 -268.053)" fill="#f48caa"/>
  </g>
</svg>
