<svg id="Group_748" data-name="Group 748" xmlns="http://www.w3.org/2000/svg" xmlns:xlink="http://www.w3.org/1999/xlink" width="70.739" height="70.742" viewBox="0 0 70.739 70.742">
  <defs>
    <clipPath id="clip-path">
      <rect id="Rectangle_270" data-name="Rectangle 270" width="70.739" height="70.742" fill="none"/>
    </clipPath>
  </defs>
  <g id="Group_747" data-name="Group 747" clip-path="url(#clip-path)">
    <path id="Path_280" data-name="Path 280" d="M0,3.224A4.431,4.431,0,0,1,3.069.13,4.5,4.5,0,0,1,4.3,0Q29.256,0,54.212,0a4.137,4.137,0,0,1,4.377,4.371c.008,4.878,0,9.757.006,14.636a1.49,1.49,0,0,1-.814,1.477,1.334,1.334,0,0,1-1.491-.16,1.527,1.527,0,0,1-.559-1.343c.009-2.048,0-4.1,0-6.144q0-3.97,0-7.939c0-1.569-.46-2.04-2-2.04q-24.473,0-48.946,0c-1.5,0-1.975.478-1.976,1.994q0,30.549,0,61.1c0,1.506.477,1.98,1.99,1.98q24.473,0,48.946,0c1.509,0,1.982-.475,1.984-1.985,0-3.13-.007-6.259.008-9.389a1.414,1.414,0,0,1,2.059-1.4,1.312,1.312,0,0,1,.782,1.212c.005,3.567.065,7.135-.034,10.7a3.857,3.857,0,0,1-2.541,3.419c-.208.1-.425.171-.638.256H3.176A4.656,4.656,0,0,1,0,67.567Z" transform="translate(0 0)" fill="#392946"/>
    <path id="Path_281" data-name="Path 281" d="M326.366,130.28a5.939,5.939,0,0,1-.974,3.216q-8.415,14.582-16.831,29.162a4.523,4.523,0,0,1-1.281,1.418q-3.982,2.913-7.945,5.853a1.545,1.545,0,0,1-2.632-1.5c.4-3.4.766-6.8,1.135-10.2a3.247,3.247,0,0,1,.454-1.288q6.9-11.95,13.8-23.9c1.092-1.892,2.163-3.8,3.289-5.669a5.853,5.853,0,0,1,10.986,2.916m-6.154,6.343c-.008-.287-.24-.34-.408-.437-1.132-.66-2.271-1.308-3.4-1.968-1.215-.707-1.213-.711-1.931.537-.057.1-.118.2-.176.3q-6.311,10.93-12.632,21.854c-.293.505-.215.738.281,1.008,1.271.692,2.533,1.408,3.763,2.17.552.342.82.3,1.159-.289q6.539-11.4,13.122-22.766c.08-.139.154-.281.224-.407m.294-9.4a2.915,2.915,0,0,0-2.436,1.336c-.429.651-.8,1.342-1.2,2.012-.154.257-.166.455.132.626q2.181,1.25,4.353,2.517c.263.153.469.147.629-.143a23.718,23.718,0,0,0,1.252-2.294,2.93,2.93,0,0,0-2.731-4.053M299.95,165.646c.151-.012.233.007.278-.025q1.9-1.375,3.795-2.759c.271-.2.149-.319-.073-.445-.979-.558-1.96-1.114-2.928-1.691-.341-.2-.511-.135-.555.246-.173,1.527-.339,3.056-.518,4.674" transform="translate(-255.63 -107.114)" fill="#f48caa"/>
    <path id="Path_282" data-name="Path 282" d="M144.927,66.7a12.75,12.75,0,1,1-12.65-12.8,12.7,12.7,0,0,1,12.65,12.8m-17.764-.91c0-.321-.012-.552,0-.781a4.809,4.809,0,0,1,3.026-4.41,4.886,4.886,0,0,1,5.288.81c2.046,1.623,2.168,5.293,1.066,7.172-.238.407-.243.6.217.831a8.136,8.136,0,0,1,2.954,2.434c.334.445.545.445.841-.038A9.837,9.837,0,0,0,124.6,60.391a9.76,9.76,0,0,0-.781,11.449c.242.355.424.53.755.09a8.71,8.71,0,0,1,3.11-2.567c.3-.148.426-.287.213-.628a4.717,4.717,0,0,1-.732-2.94m5.185,10.742a10.468,10.468,0,0,0,5.239-1.66c.376-.246.431-.434.185-.812A6.869,6.869,0,0,0,126.643,74c-.257.388-.244.623.162.894a10.461,10.461,0,0,0,5.543,1.642m1.989-10.914c0-1.471-.779-2.448-2-2.517a2.1,2.1,0,0,0-2.281,2,2.521,2.521,0,0,0,1.527,3.029c1.544.414,2.759-.693,2.756-2.51" transform="translate(-102.906 -46.45)" fill="#f48caa"/>
    <path id="Path_283" data-name="Path 283" d="M124.714,269.447c3.2,0,6.4.006,9.595,0a1.474,1.474,0,0,1,1.542.926,1.409,1.409,0,0,1-1.127,1.912,4.943,4.943,0,0,1-.689.023q-9.319,0-18.637,0a5.1,5.1,0,0,1-.689-.023,1.391,1.391,0,0,1-1.217-1.439,1.364,1.364,0,0,1,1.215-1.367,14.9,14.9,0,0,1,1.517-.028q4.245,0,8.49,0" transform="translate(-97.791 -232.167)" fill="#392946"/>
    <path id="Path_284" data-name="Path 284" d="M124.715,325.339c3.2,0,6.4.006,9.595,0a1.474,1.474,0,0,1,1.542.926,1.409,1.409,0,0,1-1.127,1.912,4.943,4.943,0,0,1-.689.023H115.4a5.094,5.094,0,0,1-.689-.023,1.391,1.391,0,0,1-1.216-1.439,1.364,1.364,0,0,1,1.215-1.366,14.894,14.894,0,0,1,1.517-.028q4.245,0,8.49,0" transform="translate(-97.792 -280.326)" fill="#392946"/>
    <path id="Path_285" data-name="Path 285" d="M124.785,381.253q4.625,0,9.25,0a4.507,4.507,0,0,1,.757.033,1.422,1.422,0,0,1,0,2.79,4.548,4.548,0,0,1-.757.033q-9.319,0-18.637,0a5.051,5.051,0,0,1-.689-.024,1.419,1.419,0,0,1,0-2.809,5.737,5.737,0,0,1,.758-.024q4.659,0,9.319,0" transform="translate(-97.791 -328.509)" fill="#392946"/>
    <path id="Path_286" data-name="Path 286" d="M206.522,437.134c1.15,0,2.3-.007,3.451,0,1.041.009,1.655.555,1.646,1.443a1.416,1.416,0,0,1-1.61,1.408q-3.554.014-7.109,0a1.41,1.41,0,0,1-1.577-1.441c.009-.861.611-1.4,1.61-1.409,1.2-.011,2.393,0,3.589,0" transform="translate(-173.471 -376.657)" fill="#392946"/>
    <path id="Path_287" data-name="Path 287" d="M73.585,270.971a1.418,1.418,0,0,1-1.467,1.411,1.42,1.42,0,0,1,.017-2.839,1.417,1.417,0,0,1,1.451,1.428" transform="translate(-60.938 -232.254)" fill="#392946"/>
    <path id="Path_288" data-name="Path 288" d="M72.155,325.432a1.42,1.42,0,1,1,0,2.84,1.42,1.42,0,1,1,0-2.84" transform="translate(-60.934 -280.411)" fill="#392946"/>
    <path id="Path_289" data-name="Path 289" d="M72.155,384.163a1.42,1.42,0,1,1,0-2.84,1.42,1.42,0,1,1,0,2.84" transform="translate(-60.935 -328.569)" fill="#392946"/>
  </g>
</svg>
